<?xml version="1.0" standalone="no"?>
<!DOCTYPE svg PUBLIC "-//W3C//DTD SVG 20010904//EN"
 "http://www.w3.org/TR/2001/REC-SVG-20010904/DTD/svg10.dtd">
<svg version="1.0" xmlns="http://www.w3.org/2000/svg"
 width="1368.000000pt" height="356.000000pt" viewBox="0 0 1368.000000 356.000000"
 preserveAspectRatio="xMidYMid meet">

<g transform="translate(0.000000,356.000000) scale(0.100000,-0.100000)"
fill="#000000" stroke="none">
<path d="M20 2010 l0 -1550 305 0 305 0 0 -225 0 -225 6515 0 6515 0 0 1475 0
1475 -225 0 -225 0 0 300 0 300 -6595 0 -6595 0 0 -1550z m13040 1175 l0 -225
-6215 0 -6215 0 -2 -1172 -3 -1173 -227 -3 -228 -2 0 1400 0 1400 6445 0 6445
0 0 -225z m-10550 -875 l0 -130 -185 0 -185 0 0 130 0 130 185 0 185 0 0 -130z
m501 -342 l1 -393 85 253 85 252 189 0 c104 0 189 -3 189 -7 0 -5 -50 -154
-112 -332 l-112 -325 147 -433 146 -433 -197 2 -197 3 -110 348 -110 348 -3
-350 -2 -351 -180 0 -180 0 0 905 0 905 180 0 180 0 1 -392z m6440 376 c184
-55 266 -177 285 -425 l7 -89 -187 0 -186 0 0 74 c0 59 -4 78 -21 100 -26 33
-79 36 -109 6 -26 -26 -27 -98 -1 -148 11 -20 101 -118 202 -217 198 -196 244
-256 280 -367 21 -64 24 -91 24 -223 -1 -266 -60 -400 -209 -478 -61 -32 -61
-32 -216 -32 -137 0 -161 3 -211 23 -169 67 -239 218 -239 512 l0 140 179 0
180 0 3 -156 c3 -150 4 -157 27 -175 35 -29 85 -25 111 9 20 24 22 36 18 117
-6 142 -23 169 -240 392 -194 200 -233 253 -263 368 -18 69 -19 177 -4 260 28
150 114 260 242 305 69 25 249 27 328 4z m-7726 -4 c137 -20 224 -88 261 -204
22 -67 31 -311 14 -389 -15 -76 -63 -146 -118 -174 l-43 -21 35 -17 c75 -36
126 -119 147 -239 16 -94 6 -360 -16 -446 -47 -176 -122 -259 -263 -289 -32
-6 -161 -11 -322 -11 l-270 0 0 900 0 900 253 0 c138 0 284 -5 322 -10z m5576
5 c4 -4 -41 -410 -66 -597 l-7 -48 -92 0 -91 0 -51 320 c-27 176 -48 323 -45
325 6 6 346 6 352 0z m2979 -160 l0 -165 49 0 49 0 4 -77 c2 -43 2 -106 0
-140 l-3 -63 -49 0 -50 0 0 -454 c0 -500 -3 -481 63 -471 l36 6 3 -88 c5 -139
1 -170 -25 -178 -12 -3 -76 -9 -143 -12 -167 -8 -220 12 -267 100 -22 42 -22
46 -25 570 l-3 527 -49 0 -50 0 0 140 0 140 50 0 50 0 0 165 0 165 180 0 180
0 0 -165z m-5980 -240 l0 -155 -33 0 c-47 0 -144 -19 -189 -37 l-38 -15 0
-594 0 -594 -185 0 -185 0 0 765 0 765 185 0 185 0 0 -72 0 -71 31 46 c42 64
131 115 202 117 l27 0 0 -155z m612 145 c138 -20 238 -80 295 -177 51 -88 53
-110 53 -760 l0 -603 -185 0 -185 0 0 78 0 77 -31 -53 c-20 -35 -46 -63 -76
-83 -42 -26 -55 -29 -127 -29 -140 0 -222 57 -267 184 -30 84 -39 348 -15 449
41 174 104 227 394 327 l122 43 0 86 c0 47 -5 103 -11 124 -13 48 -50 74 -87
61 -37 -13 -52 -48 -52 -121 l0 -63 -181 0 -182 0 6 98 c14 254 138 361 427
370 19 1 65 -3 102 -8z m1215 -15 c43 -18 87 -56 113 -97 l17 -28 32 44 c19
24 56 57 84 72 44 23 64 28 132 28 115 1 169 -17 231 -79 59 -59 80 -110 94
-236 11 -98 13 -464 3 -912 l-6 -317 -184 0 -183 0 0 595 c0 495 -2 601 -14
630 -27 64 -103 57 -134 -13 -15 -33 -17 -97 -20 -624 l-3 -588 -184 0 -185 0
0 609 0 610 -24 27 c-21 25 -27 27 -56 18 -18 -5 -42 -22 -54 -37 -21 -28 -21
-38 -26 -625 l-5 -597 -180 0 -180 0 -3 763 -2 762 185 0 185 0 0 -67 0 -67
29 45 c49 78 126 112 238 104 34 -2 79 -11 100 -20z m1883 3 c94 -23 180 -85
225 -162 32 -56 55 -151 55 -230 l0 -66 -190 0 -190 0 0 63 c0 84 -25 127 -74
127 -49 0 -80 -40 -72 -94 4 -21 12 -49 19 -62 7 -13 84 -77 172 -142 88 -65
183 -143 210 -173 104 -115 142 -227 132 -397 -6 -124 -33 -195 -100 -269 -87
-95 -193 -133 -368 -133 -169 0 -281 46 -357 144 -56 74 -74 143 -80 299 l-4
137 186 0 186 0 0 -110 c0 -124 13 -165 55 -176 72 -18 112 37 101 139 -11
108 -31 133 -246 298 -162 125 -201 164 -235 234 -35 71 -53 217 -36 296 33
156 162 263 349 288 75 11 194 5 262 -11z m3020 11 c187 -29 314 -153 355
-344 21 -101 21 -779 0 -880 -37 -172 -138 -281 -293 -314 -72 -15 -244 -14
-313 3 -73 17 -135 53 -188 111 -98 106 -110 180 -110 650 -1 392 5 451 55
553 82 167 279 256 494 221z m1130 -144 l0 -155 -33 0 c-47 0 -144 -19 -189
-37 l-38 -15 0 -594 0 -594 -185 0 -185 0 0 765 0 765 185 0 185 0 0 -72 0
-71 31 46 c42 64 131 115 202 117 l27 0 0 -155z m724 125 c116 -36 189 -109
227 -229 18 -56 22 -98 27 -278 2 -117 1 -228 -2 -247 l-7 -36 -266 0 -266 0
5 -194 c4 -134 10 -202 19 -222 16 -33 55 -50 93 -40 43 11 56 56 56 196 l0
120 187 0 186 0 -6 -117 c-7 -136 -20 -207 -53 -280 -32 -73 -106 -144 -180
-174 -53 -21 -74 -24 -214 -24 -140 0 -161 2 -214 24 -68 27 -136 86 -172 147
-13 22 -33 77 -45 121 -19 76 -20 106 -17 524 l3 444 28 60 c45 96 131 173
232 205 103 34 270 33 379 0z m-10374 -755 l0 -765 -185 0 -185 0 0 765 0 765
185 0 185 0 0 -765z"/>
<path d="M1500 1871 l0 -201 40 0 c54 0 87 17 100 53 5 16 10 90 10 162 0 163
-6 176 -93 183 l-57 4 0 -201z"/>
<path d="M1500 1130 l0 -260 35 0 c47 0 98 22 119 51 13 20 16 53 16 202 0
237 -14 267 -125 267 l-45 0 0 -260z"/>
<path d="M4839 1340 c-47 -25 -86 -71 -99 -118 -13 -48 -13 -286 1 -335 19
-70 89 -87 126 -30 16 24 18 58 21 265 2 131 0 238 -5 238 -4 -1 -24 -10 -44
-20z"/>
<path d="M10880 1778 c-19 -32 -20 -52 -20 -461 0 -363 2 -432 15 -457 27 -52
106 -52 132 0 10 19 12 125 11 466 -3 419 -4 443 -22 463 -13 14 -31 21 -58
21 -33 0 -41 -5 -58 -32z"/>
<path d="M12652 1813 c-33 -13 -46 -67 -50 -205 l-4 -138 86 0 86 0 0 123 c0
127 -10 186 -36 212 -15 14 -56 19 -82 8z"/>
</g>
</svg>
